<svg xmlns="http://www.w3.org/2000/svg" viewBox="0 0 560 105" role="img" aria-labelledby="title"><title id="title">Metaphor wordmark</title><defs><linearGradient id="v" x1="0" y1="0" x2="1" y2="1"><stop stop-color="#8A6BFF"/><stop offset="1" stop-color="#5634E8"/></linearGradient><linearGradient id="l" x1="1" y1="0" x2="0" y2="1"><stop stop-color="#C8FF36"/><stop offset="1" stop-color="#8FD900"/></linearGradient></defs><path d="M80 0H488V576C488 672 480 863 475 1047C523 865 573 677 604 576L780 0H1116L1289 576C1320 681 1372 878 1419 1065C1415 876 1406 676 1406 576V0H1814V1490H1191L1059 1024C1030 923 986 750 948 597C910 750 865 923 836 1024L702 1490H80Z" fill="#0D0D14" transform="translate(0.000 86.000) scale(0.0351562 -0.0351562)"/><path d="M80 0H1234V352H496V574H1177V914H496V1138H1234V1490H80Z" fill="#0D0D14" transform="translate(71.586 86.000) scale(0.0351562 -0.0351562)"/><path d="M40 1138H464V0H880V1138H1304V1490H40Z" fill="#0D0D14" transform="translate(122.078 86.000) scale(0.0351562 -0.0351562)"/><path d="M0 0H455L528 245H1026L1097 0H1565L1060 1490H500ZM624 565 628 578C682 758 732 932 781 1113C829 932 878 758 930 578L934 565Z" fill="#0D0D14" transform="translate(174.328 86.000) scale(0.0351562 -0.0351562)"/><path d="M80 0H496V450H713C1069 450 1292 651 1292 970C1292 1289 1069 1490 713 1490H80ZM496 792V1148H682C807 1148 886 1079 886 970C886 861 807 792 682 792Z" fill="#0D0D14" transform="translate(234.348 86.000) scale(0.0351562 -0.0351562)"/><path d="M80 0H496V581H992V0H1408V1490H992V933H496V1490H80Z" fill="#0D0D14" transform="translate(286.000 86.000) scale(0.0351562 -0.0351562)"/><path d="M764 -24C1169 -24 1488 247 1488 744C1488 1242 1169 1514 764 1514C357 1514 40 1242 40 744C40 250 357 -24 764 -24ZM764 336C569 336 460 487 460 744C460 1002 569 1154 764 1154C960 1154 1068 1002 1068 744C1068 487 960 336 764 336Z" fill="#0D0D14" transform="translate(343.312 86.000) scale(0.0351562 -0.0351562)"/><path d="M80 0H496V466H682L905 0H1338L1065 556C1210 642 1292 785 1292 970C1292 1289 1069 1490 713 1490H80ZM496 788V1152H682C807 1152 886 1079 886 970C886 861 807 788 682 788Z" fill="#0D0D14" transform="translate(402.031 86.000) scale(0.0351562 -0.0351562)"/></svg>